<?xml version="1.0" encoding="utf-8"?>
<!-- Generator: Adobe Illustrator 21.1.0, SVG Export Plug-In . SVG Version: 6.00 Build 0)  -->
<svg version="1.1" xmlns="http://www.w3.org/2000/svg" xmlns:xlink="http://www.w3.org/1999/xlink" x="0px" y="0px"
	 viewBox="0 0 55 55" style="enable-background:new 0 0 55 55;" xml:space="preserve">
<style type="text/css">
	.st0{fill:#FFFFFF;}
</style>
<g id="Layer_2">
</g>
<g id="Layer_1">
	<g>
		<g>
			<path class="st0" d="M27.3,5.1c12.7,0,23.1,10.4,23.1,23.1S40,51.2,27.3,51.2S4.2,40.9,4.2,28.1S14.6,5.1,27.3,5.1 M27.3,1.8
				C12.7,1.8,0.9,13.6,0.9,28.1s11.8,26.4,26.4,26.4s26.4-11.8,26.4-26.4S41.8,1.8,27.3,1.8L27.3,1.8z"/>
		</g>
		<g>
			<path class="st0" d="M11.5,29.6v-2.9l9.7-5.9v3.7l-6.4,3.6l6.4,3.6v3.7L11.5,29.6z"/>
			<path class="st0" d="M29.3,14.6h2.6l-7.1,28.2h-2.6L29.3,14.6z"/>
			<path class="st0" d="M33.3,31.7l6.4-3.6l-6.4-3.6v-3.8l9.7,5.9v2.9l-9.7,5.8V31.7z"/>
		</g>
	</g>
</g>
</svg>
