<svg id="Group_2" data-name="Group 2" xmlns="http://www.w3.org/2000/svg" viewBox="680 413 281 307">
  <defs>
    <style>
      .cls-1 {
        fill: #ff30d6;
      }

      .cls-2 {
        fill: #29001c;
      }

      .cls-3 {
        fill: #ff2bc2;
      }

      .cls-4 {
        fill: #fff;
      }
    </style>
  </defs>
  <g id="Group_1" data-name="Group 1">
    <rect id="Rectangle_1" data-name="Rectangle 1" class="cls-1" width="281" height="281" transform="translate(680 413)"/>
    <rect id="Rectangle_2" data-name="Rectangle 2" class="cls-2" width="250" height="250" transform="translate(696 429)"/>
    <path id="Path_1" data-name="Path 1" class="cls-3" d="M201.48,107.311a16.622,16.622,0,0,0-7.021-1.211c-15.253,0-25.421,11.742-25.421,31.232,0,22.274,10.411,31.232,23.969,31.232a22.838,22.838,0,0,0,8.353-1.332V107.311ZM147.248,138.3c0-28.206,18.158-50.238,47.938-50.238a53.681,53.681,0,0,1,6.295.242V56.832a1.213,1.213,0,0,1,1.211-1.211h19.49c.968,0,1.211.363,1.211.968V167.233A86.224,86.224,0,0,0,224,179.1c0,.847,0,.968-.726,1.332a72.108,72.108,0,0,1-30.99,7.021c-26.269,0-45.032-16.221-45.032-49.148Zm-41.28-19.611,33.9,65.733c.605.968.242,1.937-.726,1.937H118.073a2.375,2.375,0,0,1-2.542-1.574Q103.91,160.817,91.8,135.033h-.242c-7.263,16.221-15.253,33.9-23,49.874a2.325,2.325,0,0,1-2.179,1.332h-20.1c-1.211,0-1.332-.968-.726-1.695l33.169-63.8L46.651,57.316A1.072,1.072,0,0,1,47.5,55.5H68.32c1.211,0,1.816.242,2.179,1.332,7.626,16.1,15.374,31.958,22.637,48.18h.242c7.021-15.979,14.769-32.079,22.153-47.938.605-.968.968-1.574,2.179-1.574H137.2c.968,0,1.332.726.726,1.816Z" transform="translate(686 432)"/>
  </g>
  <rect id="Rectangle_3" data-name="Rectangle 3" class="cls-4" width="281" height="26" transform="translate(680 694)"/>
</svg>
