<svg xmlns="http://www.w3.org/2000/svg" viewBox="422.3 225.625 145.677 179.375">
  <defs>
    <style>
      .cls-1, .cls-2 {
        fill: #00dbfc;
      }

      .cls-2 {
        font-size: 35px;
        font-family: HelveticaNeue, Helvetica Neue;
      }
    </style>
  </defs>
  <g id="apps" transform="translate(389 189)">
    <g id="Group_5" data-name="Group 5" transform="translate(33.3 36.625)">
      <circle id="Ellipse_2" data-name="Ellipse 2" class="cls-1" cx="13.049" cy="13.049" r="13.049" transform="translate(59.789 51.663)"/>
      <path id="Path_1" data-name="Path 1" class="cls-1" d="M171.622,88.526c-4.508-3.8-10.914-7.118-18.506-9.728-1.424-.475-3.084-.949-4.745-1.424.237-1.186.475-2.135.712-3.322,3.559-17.557.949-31.318-6.643-35.826-3.8-2.135-9.016-2.135-14.947,0a61.492,61.492,0,0,0-17.557,11.151,45.549,45.549,0,0,0-3.559,3.322c-.712-.712-1.661-1.424-2.373-2.135C90.717,38.7,77.43,33.956,69.6,38.464c-3.8,2.135-6.406,6.643-7.592,13.049a58.1,58.1,0,0,0,.949,20.879,34.686,34.686,0,0,0,1.186,4.745c-1.9.475-3.8,1.186-5.457,1.661-15.9,5.457-25.387,14-25.387,22.54,0,4.508,2.61,9.253,7.592,13.287,4.745,4.033,11.388,7.592,18.981,10.2a20.041,20.041,0,0,0,4.033,1.186c-.475,1.661-.712,3.559-1.186,5.22-3.084,16.371-.475,28.946,6.881,33.216a12.874,12.874,0,0,0,6.881,1.661,23.62,23.62,0,0,0,8.541-1.661,57.6,57.6,0,0,0,18.269-11.388c.949-.949,2.135-1.9,3.084-2.847,1.424,1.186,2.61,2.373,4.033,3.559,9.253,8.067,18.269,12.337,25.387,12.337a12.874,12.874,0,0,0,6.881-1.661c3.8-2.373,6.643-6.881,7.83-13.287,1.186-6.169.949-13.524-.712-21.591a22.214,22.214,0,0,0-.949-3.8,8.5,8.5,0,0,0,2.61-.949c17.083-5.694,27.522-14.71,27.522-23.726C178.977,97.067,176.367,92.559,171.622,88.526ZM129.627,44.158c4.271-1.424,7.592-1.661,9.728-.475,4.271,2.373,7.118,12.575,3.8,29.183l-.712,2.847a158.88,158.88,0,0,0-19.455-3.084,140.405,140.405,0,0,0-12.337-15.422,39.4,39.4,0,0,1,3.322-3.084A56.817,56.817,0,0,1,129.627,44.158Zm-3.084,69.28c-2.373,4.033-4.508,7.83-6.881,11.151-4.271.237-8.779.475-13.287.475s-9.016-.237-13.287-.475A132.857,132.857,0,0,1,85.972,113.2,112.443,112.443,0,0,1,79.8,101.338c1.9-4.033,4.033-7.83,6.169-11.626h0l7.118-11.388c4.271-.237,8.779-.475,13.287-.475s9.016.237,13.287.475c2.373,3.559,4.745,7.355,7.118,11.151,2.373,4.033,4.508,7.83,6.406,11.626C130.814,105.371,128.916,109.4,126.543,113.438Zm9.49-4.745q2.847,6.762,4.982,12.812c-4.271.949-8.779,1.661-13.524,2.373,1.424-2.373,3.084-4.982,4.508-7.355C133.424,113.912,134.847,111.3,136.033,108.693Zm-29.657,32.979A135.342,135.342,0,0,1,97.6,131.232c2.847,0,5.694.237,8.541.237,3.084,0,5.932,0,8.779-.237A134.509,134.509,0,0,1,106.376,141.672ZM85.023,123.877A115.177,115.177,0,0,1,71.5,121.742a93.328,93.328,0,0,1,4.745-12.812c1.424,2.61,2.61,4.982,4.033,7.592C81.938,119.132,83.362,121.5,85.023,123.877Zm-4.508-37.25c-1.424,2.61-2.847,4.982-4.033,7.592-1.9-4.271-3.322-8.541-4.745-12.575,4.271-.949,8.541-1.661,13.287-2.373C83.362,81.645,81.938,84.255,80.515,86.627Zm25.624-24.912a134.508,134.508,0,0,1,8.541,10.439c-2.847-.237-5.694-.237-8.779-.237-2.847,0-5.694,0-8.541.237C100.444,68.358,103.292,64.8,106.139,61.715Zm25.624,24.912a76.084,76.084,0,0,0-4.508-7.355,110.344,110.344,0,0,1,13.287,2.373A103.465,103.465,0,0,1,135.8,94.22,47.622,47.622,0,0,0,131.763,86.627ZM68.889,71.206c-1.424-7.118-1.661-13.524-.712-18.506.712-4.271,2.373-7.355,4.508-8.779,4.271-2.373,14.473,0,27.048,11.388l2.135,2.135A140.4,140.4,0,0,0,89.531,72.866a151.889,151.889,0,0,0-19.455,3.084C69.6,74.053,69.363,72.629,68.889,71.206Zm-6.881,47.926c-15.422-5.22-22.54-12.812-22.54-17.794,0-4.745,6.643-11.626,21.116-16.608,1.661-.475,3.322-1.186,4.982-1.661a183.144,183.144,0,0,0,7.118,18.506,130.868,130.868,0,0,0-7.118,18.743C64.381,119.844,63.195,119.607,62.008,119.132Zm14.473,41.046a6.02,6.02,0,0,1-3.8-.949c-4.033-2.373-6.881-11.388-3.8-26.573.237-1.661.712-3.084.949-4.745a119.021,119.021,0,0,0,19.693,2.847,141.438,141.438,0,0,0,12.575,15.422c-.949.949-1.9,1.661-2.847,2.61C90.005,156.856,81.7,160.178,76.481,160.178Zm67.144-29.183c3.084,15.9,0,25.861-4.033,28.234s-13.287.237-24.912-9.965a45.548,45.548,0,0,1-3.559-3.322,175.365,175.365,0,0,0,12.337-15.422,149.273,149.273,0,0,0,19.693-3.084A18.312,18.312,0,0,0,143.626,130.995Zm5.931-11.863c-.712.237-1.661.475-2.373.712a157.349,157.349,0,0,0-7.355-18.506,160.622,160.622,0,0,0,7.118-18.269l4.271,1.424a55.1,55.1,0,0,1,16.371,8.541c3.322,2.847,5.22,5.694,5.22,8.3C172.809,106.32,165.454,113.912,149.557,119.132Z" transform="translate(-33.3 -36.625)"/>
    </g>
  </g>
  <text id="React" class="cls-2" transform="translate(450 398)"><tspan x="0" y="0">React</tspan></text>
</svg>
